<svg xmlns="http://www.w3.org/2000/svg" width="412.001" height="229.939" viewBox="0 0 412.001 229.939">
  <g id="Group_49147" data-name="Group 49147" transform="translate(0 -186.229)">
    <g id="_x31_4" transform="translate(0 186.229)">
      <path id="Path_108546" data-name="Path 108546" d="M288.341,338.2c-.808-1.641-1.616-3.346-2.4-5.063l1.907-.379c.77,1.7,1.566,3.4,2.374,5.026Zm341.525-2.121-1.982-.164c.328-1.755.644-3.51.922-5.24l1.982.139C630.5,332.551,630.195,334.319,629.866,336.074Zm-346.109-8.044c-.694-1.692-1.376-3.422-2.008-5.139l1.932-.316c.631,1.7,1.3,3.422,2,5.1Zm347.852-2.488-1.982-.126c.253-1.755.48-3.523.694-5.253l1.982.1C632.089,322.007,631.861,323.775,631.609,325.543Zm-351.69-7.816c-.581-1.73-1.124-3.472-1.629-5.19l1.957-.253c.505,1.7,1.048,3.447,1.616,5.164Zm352.953-2.74-1.982-.088c.164-1.755.316-3.523.442-5.265l2,.063C633.187,311.451,633.048,313.219,632.871,314.987Zm-356-7.665c-.442-1.755-.859-3.51-1.225-5.24l1.97-.177c.366,1.717.77,3.472,1.212,5.2Zm356.741-2.917-2-.038c.076-1.768.126-3.536.164-5.278l2,.013C633.755,300.857,633.692,302.637,633.616,304.405Zm-358.963-7.6c-.3-1.768-.556-3.548-.77-5.278l1.982-.1c.215,1.73.467,3.485.758,5.24Zm357.145-2.98c-.025-1.768-.076-3.536-.151-5.266l2-.038c.076,1.742.126,3.523.151,5.3Zm-358.433-7.589c-.126-1.78-.215-3.561-.265-5.3l2-.025c.038,1.73.126,3.5.253,5.265Zm357.953-2.942c-.139-1.768-.3-3.536-.505-5.253l1.982-.1c.2,1.73.366,3.51.505,5.291Zm-356.211-7.639-2-.025c.05-1.78.164-3.561.316-5.3l1.982.076C275.272,272.118,275.171,273.886,275.108,275.653Zm355.024-2.866c-.265-1.768-.568-3.523-.9-5.228l1.97-.164c.328,1.717.631,3.5.9,5.265Zm-354.077-7.639-1.983-.126c.265-1.78.606-3.548.985-5.278l1.97.189C276.648,261.637,276.32,263.392,276.055,265.148Zm352.069-2.816c-.417-1.755-.871-3.5-1.351-5.19l1.957-.24c.492,1.7.947,3.46,1.364,5.228Zm-235.546-.177a19.791,19.791,0,0,1-7.538-2.551l1.263-1.023a17.534,17.534,0,0,0,6.49,2.26Zm6.907-3.132-1.768-.593a16.66,16.66,0,0,0,2.4-4.849l1.945.278A17.105,17.105,0,0,1,399.485,259.023Zm-20.292-3.195c-1.591-1.162-3.283-2.5-5.177-4.091l1.566-.808c1.869,1.566,3.548,2.892,5.1,4.028Zm-100.84-1.073L276.4,254.5c.518-1.755,1.1-3.5,1.73-5.19l1.932.316C279.439,251.308,278.871,253.026,278.353,254.755Zm346.8-2.765c-.594-1.73-1.225-3.447-1.894-5.114l1.919-.341c.669,1.667,1.313,3.409,1.907,5.152ZM403.4,248.581l-1.97-.164c.3-1.566.581-3.283.833-5.24l1.982.114C403.98,245.26,403.7,246.99,403.4,248.581Zm-34.27-1.073c-1.616-1.439-3.3-2.967-4.748-4.281l1.616-.77c1.44,1.313,3.119,2.828,4.735,4.268Zm145.818-.114a11.655,11.655,0,0,1-4.521-.909l1.061-1.111a9.322,9.322,0,0,0,6.642.189l.859,1.187A13.676,13.676,0,0,1,514.947,247.394Zm-232.755-2.828-1.907-.379c.8-1.7,1.654-3.4,2.576-5.038l1.869.455C283.82,241.219,282.974,242.886,282.192,244.565Zm243.3-1.25-1.465-.9a53.106,53.106,0,0,0,4.95-4.066l1.616.77A56.078,56.078,0,0,1,525.491,243.315Zm-20.734-.9a39.639,39.639,0,0,1-3.9-4.723l1.806-.556a39.363,39.363,0,0,0,3.775,4.571Zm116.308-.581c-.808-1.7-1.654-3.371-2.551-4.975l1.869-.455c.9,1.616,1.768,3.321,2.576,5.038Zm-261.394-2.892c-1.818-1.642-3.346-2.993-4.773-4.243l1.591-.8c1.44,1.263,2.967,2.614,4.8,4.255Zm45.167-.972-1.982-.088c.152-1.54.3-3.27.467-5.291l1.982.076C405.142,234.691,404.99,236.434,404.839,237.974Zm-117.116-3.233-1.818-.53q1.648-2.443,3.5-4.8l1.768.606Q289.332,232.33,287.722,234.742Zm247.428,0-1.667-.72c1.414-1.414,2.879-2.917,4.356-4.445l1.679.707C538.029,231.812,536.565,233.315,535.15,234.742Zm-37.5-1.945c-.9-1.49-1.831-3.119-2.854-4.975l1.869-.442c1.01,1.844,1.932,3.46,2.828,4.937Zm117.95-.821c-1.073-1.642-2.2-3.245-3.371-4.748l1.78-.593c1.187,1.528,2.336,3.157,3.422,4.824Zm-265.624-1.427c-1.806-1.477-3.485-2.791-5.139-4.028l1.49-.871c1.679,1.25,3.371,2.576,5.2,4.066Zm55.749-3.169-2-.063c.139-1.755.265-3.51.4-5.291l2,.063C406,223.87,405.861,225.625,405.722,227.38Zm138.153-1.528-1.667-.72c1.667-1.654,3.157-3.094,4.546-4.394l1.616.758C547.007,222.784,545.53,224.211,543.876,225.852Zm-248.767-.366-1.679-.707a47.038,47.038,0,0,1,4.8-4.331l1.515.846A45.273,45.273,0,0,0,295.109,225.486Zm197.021-2.664c-.909-1.768-1.806-3.536-2.563-5.026l1.894-.417c.758,1.49,1.654,3.258,2.563,5.013Zm-152.775-.1c-2.033-1.3-4.041-2.462-5.947-3.435l1.212-1.035a68.572,68.572,0,0,1,6.124,3.536Zm269.008-.051a59.425,59.425,0,0,0-4.445-4.318l1.591-.8a62.448,62.448,0,0,1,4.558,4.419Zm-303.025-4.95-1.212-1.048a29,29,0,0,1,7.362-2.563l.581,1.25A27.243,27.243,0,0,0,305.337,217.72Zm247.857-.4-1.553-.821a67,67,0,0,1,5.4-3.99l1.414.922C556.743,214.563,555.025,215.839,553.194,217.316ZM406.581,216.8l-1.982-.076c.177-1.907.341-3.637.518-5.3l1.982.088C406.922,213.174,406.758,214.9,406.581,216.8Zm-79.765-.278a32.087,32.087,0,0,0-7.261-1.541l.265-1.3a35.9,35.9,0,0,1,7.879,1.667ZM598.791,214.4a46.379,46.379,0,0,0-5.9-3.4l1.174-1.061a49.446,49.446,0,0,1,6.149,3.536ZM487.028,212.77c-.985-1.957-1.806-3.548-2.563-5.013l1.881-.429c.77,1.465,1.578,3.068,2.576,5.026Zm77.4-2.7-1.137-1.073a35.54,35.54,0,0,1,7.349-2.488l.619,1.25A33.027,33.027,0,0,0,564.433,210.068Zm21.731-1.6a36.256,36.256,0,0,0-7.425-1.263l.189-1.313a38.357,38.357,0,0,1,8.006,1.364Zm-178.421-2.21-1.982-.114c.253-1.844.518-3.624.808-5.291l1.982.152C408.26,202.643,407.983,204.424,407.743,206.255Zm74.071-3.485c-.96-1.768-1.869-3.384-2.778-4.95l1.856-.467c.909,1.566,1.818,3.195,2.791,4.975Zm-72.265-7.008-1.97-.189c.4-1.844.846-3.611,1.313-5.253l1.957.24C410.395,192.188,409.953,193.943,409.548,195.762Zm66.532-2.841c-1.073-1.692-2.147-3.321-3.207-4.824l1.806-.556c1.073,1.515,2.159,3.157,3.233,4.874Zm-63.54-7.5-1.932-.316a49.587,49.587,0,0,1,2.273-5.127l1.881.429A50.145,50.145,0,0,0,412.541,185.42Zm56.8-2.046c-1.313-1.629-2.652-3.157-3.978-4.533l1.679-.707c1.351,1.414,2.715,2.967,4.053,4.621Zm-51.569-7.791-1.78-.581a27.2,27.2,0,0,1,4.306-4.584l1.566.808A25.98,25.98,0,0,0,417.769,175.584Zm43.021-1a42.683,42.683,0,0,0-5.341-3.788l1.339-.972a45.2,45.2,0,0,1,5.556,3.94Zm-33.373-6.756-1.073-1.111a26.69,26.69,0,0,1,7.728-1.919l.3,1.3A24.041,24.041,0,0,0,427.416,167.831Zm21.756,0a33.39,33.39,0,0,0-7.185-1.679l.354-1.288a35.555,35.555,0,0,1,7.778,1.818Z" transform="translate(-253.587 -164.8)" fill="#dce6ff"/>
      <path id="Path_108547" data-name="Path 108547" d="M512.9,574.947s-48.5-88.453-13.6-108.155c23.335-13.158,48.059,15.861,77.581.5,26.277-13.67,17.93-55.251,59.84-61,47.124-6.458,57.491,71.1,96.168,60.5,46.922-12.86,93.6,13.244,53.261,108.325Z" transform="translate(-440.192 -375.464)" fill="#e8f3ff"/>
      <path id="Path_108548" data-name="Path 108548" d="M507.489,945.2c-16.529-1.616-13.827,12.968-37.389,12.968-21.542,0-28.436-55.559-44.106-39.674-80.346,81.407-33.689-34.624-97.582-36.1-28.891-.669-48.147,19.635-55.244,55.585-10.291,32.5-34.156-24.787-58.716-19.458-15.607,3.384-13.827,39.636-35.356,39.636-23.562,0-20.86-14.584-37.389-12.968-17.792,1.742-23.108,27.565-23.108,27.565h412S525.281,946.926,507.489,945.2Z" transform="translate(-118.596 -772.754)" fill="#eef7ff"/>
      <path id="Path_108549" data-name="Path 108549" d="M606.964,1242.2c-15.2-.694-12.728,5.543-34.4,5.543-19.812,0-19.269-13.965-32.527-16.933-24.421-5.467-44.548,22.186-54.019,8.309-17.981-36.82-70.421-55.294-94.615,0-9.47,13.877-31.606-10.885-54.019-8.309-13.8,1.591-12.716,16.933-32.527,16.933-21.668,0-19.193-6.225-34.4-5.543-16.365.745-21.264,11.768-21.264,11.768H628.228S623.328,1242.949,606.964,1242.2Z" transform="translate(-232.705 -1053.979)" fill="#dce6ff"/>
      <path id="Path_108550" data-name="Path 108550" d="M118.877,1598.1s-2.892,6.945,9.079,8.688c16.377,2.374,112.52,8.624,89.173,13.385-13.183,2.677,6.73,6.326,70.952,7.665s174.418-3.915,137.358-11.68,113.922-1.882,104.729-18.044H118.877Z" transform="translate(-118.57 -1398.106)" fill="rgba(207,221,249,0.22)"/>
    </g>
    <g id="Welcome" transform="translate(59.5 237.218)">
      <g id="Group_49122" data-name="Group 49122" transform="translate(0 0)">
        <rect id="Rectangle_20739" data-name="Rectangle 20739" width="8.532" height="2.364" transform="matrix(0.364, -0.931, 0.931, 0.364, 282.43, 71.209)" fill="#367cff"/>
        <rect id="Rectangle_20740" data-name="Rectangle 20740" width="2.364" height="8.532" transform="translate(89.74 45.352) rotate(-41.848)" fill="#0cbc8b"/>
        <rect id="Rectangle_20741" data-name="Rectangle 20741" width="8.532" height="2.365" transform="matrix(0.8, -0.6, 0.6, 0.8, 110.77, 77.339)" fill="#367cff"/>
        <rect id="Rectangle_20742" data-name="Rectangle 20742" width="2.364" height="8.533" transform="matrix(0.685, -0.728, 0.728, 0.685, 194.964, 15.246)" fill="#367cff"/>
        <rect id="Rectangle_20743" data-name="Rectangle 20743" width="8.533" height="2.364" transform="translate(147.148 22.822) rotate(-60.106)" fill="#0cbc8b"/>
        <rect id="Rectangle_20744" data-name="Rectangle 20744" width="2.364" height="8.532" transform="translate(211.153 79.947) rotate(-32.254)" fill="#0cbc8b"/>
        <rect id="Rectangle_20745" data-name="Rectangle 20745" width="2.364" height="8.532" transform="matrix(0.895, -0.447, 0.447, 0.895, 118.32, 114.879)" fill="#0cbc8b"/>
        <rect id="Rectangle_20746" data-name="Rectangle 20746" width="8.532" height="2.364" transform="translate(87.038 101.912) rotate(-73.312)" fill="#367cff"/>
        <rect id="Rectangle_20747" data-name="Rectangle 20747" width="8.532" height="2.364" transform="translate(230.415 123.96) rotate(-33.846)" fill="#367cff"/>
        <rect id="Rectangle_20748" data-name="Rectangle 20748" width="8.532" height="2.364" transform="matrix(0.498, -0.867, 0.867, 0.498, 234.31, 7.397)" fill="#0cbc8b"/>
        <rect id="Rectangle_20749" data-name="Rectangle 20749" width="2.364" height="8.532" transform="matrix(0.931, -0.364, 0.364, 0.931, 0, 61.378)" fill="#0cbc8b"/>
        <rect id="Rectangle_20750" data-name="Rectangle 20750" width="2.365" height="8.532" transform="matrix(0.6, -0.8, 0.8, 0.6, 229.386, 52.592)" fill="#0cbc8b"/>
        <rect id="Rectangle_20751" data-name="Rectangle 20751" width="8.533" height="2.364" transform="matrix(0.728, -0.685, 0.685, 0.728, 32.764, 21.685)" fill="#367cff"/>
        <rect id="Rectangle_20752" data-name="Rectangle 20752" width="2.364" height="8.533" transform="translate(105.755 10.052) rotate(-29.894)" fill="#367cff"/>
        <rect id="Rectangle_20753" data-name="Rectangle 20753" width="8.532" height="2.364" transform="translate(19.643 108.967) rotate(-57.746)" fill="#0cbc8b"/>
        <rect id="Rectangle_20754" data-name="Rectangle 20754" width="2.364" height="8.532" transform="matrix(0.557, -0.831, 0.831, 0.557, 2.71, 123.483)" fill="#367cff"/>
        <rect id="Rectangle_20755" data-name="Rectangle 20755" width="2.364" height="8.532" transform="matrix(0.867, -0.498, 0.498, 0.867, 275.53, 28.469)" fill="#367cff"/>
      </g>
      <g id="Group_49146" data-name="Group 49146" transform="translate(8.407 35.182)">
        <rect id="Rectangle_20756" data-name="Rectangle 20756" width="8.532" height="2.364" transform="translate(174.645 18.622) rotate(-48.152)" fill="#367cff"/>
        <rect id="Rectangle_20757" data-name="Rectangle 20757" width="8.532" height="2.364" transform="matrix(0.447, -0.895, 0.895, 0.447, 126.551, 91.541)" fill="#0cbc8b"/>
        <rect id="Rectangle_20758" data-name="Rectangle 20758" width="2.364" height="8.532" transform="translate(159.045 64.504) rotate(-16.688)" fill="#367cff"/>
        <g id="Group_49126" data-name="Group 49126" transform="translate(142.047 62.037)">
          <path id="Path_108903" data-name="Path 108903" d="M529.084,335.391l-8.059-6.126a1.6,1.6,0,0,0-2.326.424,1.658,1.658,0,0,0,.454,2.177l1.728,1.313-7.33-1.636c-.812-.2-1.934.082-2.093,1.008a1.6,1.6,0,0,0,.841,1.808.057.057,0,0,0-.009.041l-1.252-.3a1.6,1.6,0,0,0-1.978,1.512,1.64,1.64,0,0,0,1.284,1.616l.532.129a.154.154,0,0,0,.019.048,1.6,1.6,0,0,0-1.592,1.33,1.653,1.653,0,0,0,1.277,1.846l1.323.32a.148.148,0,0,0-.089.1.145.145,0,0,0,.008.082,1.6,1.6,0,0,0-1.188,1.54,1.639,1.639,0,0,0,1.285,1.576l11.164,2.7a8.069,8.069,0,0,0,8.453-3.144h0a5.322,5.322,0,0,0-1.107-7.337Z" transform="translate(-509.059 -328.939)" fill="#e98862"/>
          <g id="Group_49123" data-name="Group 49123" transform="translate(3.226 5.325)" opacity="0.2">
            <path id="Path_108904" data-name="Path 108904" d="M527.235,348.706a.148.148,0,0,1-.176.108l-6.969-1.566a.148.148,0,0,1,.065-.288l6.969,1.566a.148.148,0,0,1,.112.177Z" transform="translate(-519.975 -346.956)" fill="#0c0c0c"/>
          </g>
          <g id="Group_49124" data-name="Group 49124" transform="translate(1.811 8.238)" opacity="0.2">
            <path id="Path_108905" data-name="Path 108905" d="M523.256,358.741a.148.148,0,0,1-.177.108L515.3,357.1a.148.148,0,0,1-.112-.177.153.153,0,0,1,.177-.112l7.778,1.747a.148.148,0,0,1,.112.177Z" transform="translate(-515.185 -356.81)" fill="#0c0c0c"/>
          </g>
          <g id="Group_49125" data-name="Group 49125" transform="translate(2.749 11.944)" opacity="0.2">
            <path id="Path_108906" data-name="Path 108906" d="M524.857,370.929a.148.148,0,0,1-.176.108l-6.2-1.393a.148.148,0,1,1,.065-.288l6.2,1.393a.148.148,0,0,1,.112.177Z" transform="translate(-518.361 -369.352)" fill="#0c0c0c"/>
          </g>
        </g>
        <g id="Group_49130" data-name="Group 49130" transform="translate(122.506 15.503)">
          <path id="Path_108907" data-name="Path 108907" d="M444.247,182.344l4.5-9.068a1.6,1.6,0,0,1,2.272-.654,1.658,1.658,0,0,1,.562,2.152l-.965,1.944,5.84-4.721c.64-.536,1.769-.785,2.323-.027a1.6,1.6,0,0,1,.049,1.993.118.118,0,0,1,.018.016l.009.016.987-.828a1.6,1.6,0,0,1,2.444.476,1.64,1.64,0,0,1-.432,2.018l-.42.352a.139.139,0,0,1,0,.052,1.6,1.6,0,0,1,2.017.484,1.653,1.653,0,0,1-.325,2.221l-1.044.874a.138.138,0,0,1,.155.129,1.6,1.6,0,0,1,1.748.852,1.639,1.639,0,0,1-.451,1.983l-8.8,7.375a8.066,8.066,0,0,1-8.969.937h0a5.323,5.323,0,0,1-2.267-7.064Z" transform="translate(-442.941 -171.494)" fill="#e98862"/>
          <g id="Group_49127" data-name="Group 49127" transform="translate(10.095 2.43)" opacity="0.2">
            <path id="Path_108908" data-name="Path 108908" d="M477.131,184.458a.148.148,0,0,0,.207.019l5.549-4.5a.148.148,0,1,0-.186-.23l-5.549,4.5a.148.148,0,0,0-.022.207Z" transform="translate(-477.097 -179.716)" fill="#0c0c0c"/>
          </g>
          <g id="Group_49128" data-name="Group 49128" transform="translate(12.01 4.414)" opacity="0.2">
            <path id="Path_108909" data-name="Path 108909" d="M483.611,191.687a.148.148,0,0,0,.207.019l6.192-5.019a.148.148,0,0,0,.022-.207.153.153,0,0,0-.207-.022l-6.195,5.019a.148.148,0,0,0-.022.207Z" transform="translate(-483.576 -186.428)" fill="#0c0c0c"/>
          </g>
          <g id="Group_49129" data-name="Group 49129" transform="translate(14.07 8.148)" opacity="0.2">
            <path id="Path_108910" data-name="Path 108910" d="M490.58,203.309a.148.148,0,0,0,.207.019l4.94-4a.148.148,0,0,0-.186-.23l-4.941,4a.148.148,0,0,0-.022.207Z" transform="translate(-490.545 -199.061)" fill="#0c0c0c"/>
          </g>
        </g>
        <g id="Group_49131" data-name="Group 49131" transform="translate(14.444)">
          <path id="Path_108911" data-name="Path 108911" d="M85.7,175.895s-.635,9.521-2.776,12.975c-6.167,9.945-7.954,21.132-1.778,26.977s45.566,5.926,48.55-7.517c2.512-11.318-2.879-12.535-4.191-21.871-.593-4.225-2.226-13.083-2.226-13.083" transform="translate(-77.315 -157.316)" fill="#0a0a0a"/>
          <path id="sk" d="M150.332,241.333c-.068-.009-.823,12.511-15.367,11.42-10.069-.755-13.659-11.438-13.89-11.438a23.865,23.865,0,0,0,3.4-.824c1.586-.852,3.547-1.738,4.059-4.818.3-1.773-.205-10.853-.051-12.65l15.456,3.451c-.216,3.792-1.728,12.583,3.57,14.139C148.385,240.872,149.335,241.109,150.332,241.333Z" transform="translate(-108.142 -192.291)" fill="#f0b198"/>
          <path id="sh" d="M174.338,242.45a11.186,11.186,0,0,1-.465-2.4,25.584,25.584,0,0,1,.1-5.579,16.944,16.944,0,0,1-8.542-3.743c-.287,1.06-1.866,5.691-1.428,6.7C164.829,239.332,168.711,242.45,174.338,242.45Z" transform="translate(-138.329 -197.718)" fill="#0c0c0c" opacity="0.5"/>
          <path id="Path_108912" data-name="Path 108912" d="M150.624,174.639c-6.094.591-13.978-1.848-15.611-9.963l-1.474-7.322c-1.633-8.115,1.3-15.551,8.945-17.089h0c7.641-1.537,14.675,3.891,16.309,12.006l.653,3.242C160.073,158.627,161.5,173.587,150.624,174.639Z" transform="translate(-116.615 -133.808)" fill="#f0b198"/>
          <ellipse id="Ellipse_3432" data-name="Ellipse 3432" cx="1.829" cy="1.341" rx="1.829" ry="1.341" transform="translate(28.003 27.75) rotate(-6.804)" fill="#0c0c0c" opacity="0.1"/>
          <path id="Path_108913" data-name="Path 108913" d="M215.117,207.523c.089.734.974,1.233,1.977,1.115a2.521,2.521,0,0,0,.509-.116c.047-.876.049-1.718.024-2.5a2.3,2.3,0,0,0-.852-.05C215.771,206.092,215.03,206.785,215.117,207.523Z" transform="translate(-174.384 -180.267)" fill="#0c0c0c" opacity="0.1"/>
          <path id="Path_108914" data-name="Path 108914" d="M197.485,202.491l.015,0a8.579,8.579,0,0,0,.916-.244c.449-.15,1.034-.4.954-.8-.093-.462-2.364-5.2-2.622-5.734a.2.2,0,1,0-.355.17c.969,2.016,2.528,5.331,2.591,5.642a3.518,3.518,0,0,1-1.561.583.2.2,0,0,0,.063.388Z" transform="translate(-161.183 -172.965)" fill="#0c0c0c" opacity="0.5"/>
          <path id="Path_108915" data-name="Path 108915" d="M108.152,145.213l6.85-1.338c5.174-2.164,6.642-11.181,6.642-11.181s6.386,6.082,21.648,2.4c0,0-3.315-21.305-25.851-14.837-7.266,2.085-12.413,9.492-11.648,19.3C106.33,146.436,108.152,145.213,108.152,145.213Z" transform="translate(-97.323 -119.038)" fill="#0a0a0a"/>
          <path id="Path_108916" data-name="Path 108916" d="M130.336,211.478c-2.322.467-4.7-1.638-5.172-3.96s1.157-3.981,3.479-4.449l1.51,1.315,2.179,6.692Z" transform="translate(-110.965 -178.233)" fill="#f0b198"/>
          <path id="Path_108917" data-name="Path 108917" d="M202.327,180.58a4.029,4.029,0,0,1,1.969-.724,3.546,3.546,0,0,1,1.065.059,4.307,4.307,0,0,1,1.02.345l.01,0a.15.15,0,0,0,.128-.272,4.632,4.632,0,0,0-1.086-.409,3.907,3.907,0,0,0-1.164-.1,4.435,4.435,0,0,0-2.217.739.226.226,0,1,0,.254.373l.005,0Z" transform="translate(-165.117 -161.612)" fill="#0c0c0c"/>
          <path id="Path_108918" data-name="Path 108918" d="M171.92,185.94a4.431,4.431,0,0,0-2.331.165,3.91,3.91,0,0,0-1.034.541,4.623,4.623,0,0,0-.847.794.15.15,0,0,0,.222.2l.008-.008a4.3,4.3,0,0,1,.81-.709,3.55,3.55,0,0,1,.962-.462,4.027,4.027,0,0,1,2.1-.086l.017,0a.226.226,0,1,0,.106-.439Z" transform="translate(-140.966 -166.107)" fill="#0c0c0c"/>
          <path id="Path_108919" data-name="Path 108919" d="M137.023,174.021c4.6-1.714,6.132-4.894,6.6-7.26a11.539,11.539,0,0,0-.084-4.769l-.142.039a11.386,11.386,0,0,1,.08,4.706c-.465,2.327-1.971,5.456-6.509,7.145Z" transform="translate(-119.34 -149.297)" fill="#0c0c0c"/>
        </g>
        <path id="Path_108920" data-name="Path 108920" d="M243.592,231.847l43.72,14.614-12.836,5.706,21.8-44.723,17.817,8.3L293.867,261.2a10.479,10.479,0,0,1-12.4,5.829l-.435-.123-44.382-12.461Z" transform="translate(-175.113 -181.315)" fill="#3b67ba"/>
        <path id="b_1_b" d="M86.243,291.505c-10.076-.475-10.5-9.027-10.5-9.027s-4.993.323-8.311.772c-5.433.735-9.018,2.578-11.871,5.43-2.653,2.654-4.269,5.525-2.56,23.854,1.238,13.272.367,42.465.367,42.465h61.4s4.288-42.176,4.8-48.149c.97-11.405,3.711-13.923-1.842-19.8-4.027-4.261-14.423-4.574-18.608-4.573C99.047,282.479,99.965,292.152,86.243,291.505Z" transform="translate(-45.247 -234.173)" fill="#3b67ba"/>
        <path id="Path_108921" data-name="Path 108921" d="M190.608,224.241a9.992,9.992,0,0,1-6.42.9.4.4,0,0,0-.429.594c.65,1.146,2.192,3.1,4.838,2.305,1.708-.515,2.354-2.273,2.593-3.36a.4.4,0,0,0-.583-.444Z" transform="translate(-137.82 -193.116)" fill="#fff"/>
        <circle id="Ellipse_3433" data-name="Ellipse 3433" cx="0.957" cy="0.957" r="0.957" transform="translate(51.955 20.407)" fill="#0c0c0c"/>
        <circle id="Ellipse_3434" data-name="Ellipse 3434" cx="0.957" cy="0.957" r="0.957" transform="translate(42.762 22.017)" fill="#0c0c0c"/>
        <path id="Path_108922" data-name="Path 108922" d="M279.083,359.928h-.019a.148.148,0,0,1-.128-.165l.951-7.707a.145.145,0,0,1,.165-.128.148.148,0,0,1,.129.165l-.951,7.707a.148.148,0,0,1-.146.128Z" transform="translate(-204.902 -283.095)" fill="#0c0c0c"/>
        <g id="Group_49135" data-name="Group 49135" transform="translate(226.331 0.223)">
          <path id="Path_108923" data-name="Path 108923" d="M797.5,138.725s-3.663-4.113-3.238-11.816c.329-5.964,4.93-1.141,4.93-1.141s.279-4.292,3.241-3.27,3.795,5.755,3.795,5.755" transform="translate(-794.229 -121.588)" fill="#0c0c0c"/>
          <path id="Path_108924" data-name="Path 108924" d="M874.946,135.149s14.794,4.634,5.246,24.029L878.837,159l-2.752-.359" transform="translate(-851.09 -130.611)" fill="#0c0c0c"/>
          <path id="sk-2" data-name="sk" d="M803.741,241.376c.068-.009.82,12.469,15.316,11.382,10.036-.752,13.614-11.4,13.844-11.4a23.819,23.819,0,0,1-3.385-.821c-1.58-.849-3.535-1.733-4.045-4.8-.294-1.769.2-10.817.051-12.607l-15.4,3.438c.215,3.78,1.722,12.542-3.558,14.092C805.681,240.916,804.734,241.152,803.741,241.376Z" transform="translate(-800.93 -192.588)" fill="#f0b198"/>
          <path id="sh-2" data-name="sh" d="M824.587,242.485a11.153,11.153,0,0,0,.463-2.391,25.472,25.472,0,0,0-.1-5.561,16.889,16.889,0,0,0,8.514-3.73c.286,1.056,1.859,5.672,1.423,6.676C834.064,239.377,830.195,242.485,824.587,242.485Z" transform="translate(-815.615 -197.994)" fill="#0c0c0c"/>
          <path id="Path_108925" data-name="Path 108925" d="M809,173.9c6.067.653,13.95-1.691,15.666-9.76l1.548-7.282c1.714-8.069-1.132-15.513-8.731-17.128h0c-7.6-1.615-14.668,3.72-16.383,11.789l-.685,3.224a24.918,24.918,0,0,0-.419,3.365c-.189,2.985-.464,7.526.913,10.91C802.209,172.212,805.124,173.482,809,173.9Z" transform="translate(-798.181 -133.634)" fill="#f0b198"/>
          <circle id="Ellipse_3435" data-name="Ellipse 3435" cx="0.957" cy="0.957" r="0.957" transform="translate(5.044 19.761)" fill="#0c0c0c"/>
          <circle id="Ellipse_3436" data-name="Ellipse 3436" cx="0.957" cy="0.957" r="0.957" transform="translate(14.13 20.718)" fill="#0c0c0c"/>
          <path id="Path_108926" data-name="Path 108926" d="M875.746,211.055c2.309.491,4.706-1.582,5.2-3.891s-1.11-3.98-3.419-4.471l-1.519,1.294-2.244,6.646Z" transform="translate(-850.255 -178.192)" fill="#f0b198"/>
          <g id="Group_49134" data-name="Group 49134" transform="translate(3.609 3.176)">
            <g id="Group_49133" data-name="Group 49133">
              <path id="Path_108927" data-name="Path 108927" d="M826.91,156.048s1.5-11.6-1.83-13c-2.217-.932-8.478,1.23-13.474-.8-2.185-.887-4.454-.754-4.888.276-.172.408-.37-5.981,4.112-9.906,3.568-3.125,13.045-2.319,17.021-.269,11.009,5.677,2.775,20.113,2.775,20.113l-1.307,3.842Z" transform="translate(-806.588 -130.54)" fill="#0c0c0c"/>
              <g id="Group_49132" data-name="Group 49132" transform="translate(2.998 19.455)">
                <path id="Path_108928" data-name="Path 108928" d="M818.466,203.249l-.015,0c-.744-.156-1.976-.5-1.86-1.058.1-.461,2.406-5.178,2.669-5.714a.194.194,0,1,1,.348.171c-1.024,2.088-2.571,5.309-2.638,5.623a3.471,3.471,0,0,0,1.56.6.194.194,0,0,1-.064.382Z" transform="translate(-816.584 -196.366)" fill="#0c0c0c"/>
              </g>
              <path id="Path_108929" data-name="Path 108929" d="M811.149,178.6a4.558,4.558,0,0,0-2.366-.478,4.026,4.026,0,0,0-1.174.253,4.715,4.715,0,0,0-1.051.553.246.246,0,1,0,.258.419l.017-.01a4.192,4.192,0,0,1,.955-.437,3.433,3.433,0,0,1,1.022-.163,3.893,3.893,0,0,1,1.961.5l.022.013a.37.37,0,1,0,.374-.638Z" transform="translate(-806.441 -164.052)" fill="#0c0c0c"/>
              <path id="Path_108930" data-name="Path 108930" d="M839.7,182.84a3.9,3.9,0,0,1,2.023.023,3.445,3.445,0,0,1,.946.42,4.2,4.2,0,0,1,.81.668l.013.013a.246.246,0,0,0,.357-.338,4.725,4.725,0,0,0-.874-.8,4.035,4.035,0,0,0-1.069-.546,4.561,4.561,0,0,0-2.41-.148.37.37,0,0,0,.158.723l.019,0Z" transform="translate(-829.524 -166.812)" fill="#0c0c0c"/>
            </g>
            <path id="Path_108931" data-name="Path 108931" d="M817.779,224.31a9.99,9.99,0,0,0,6.459-.554.4.4,0,0,1,.551.483c-.378,1.262-1.442,3.517-4.2,3.33-1.78-.12-2.8-1.689-3.281-2.695a.4.4,0,0,1,.47-.564Z" transform="translate(-814.07 -196.182)" fill="#fff"/>
          </g>
          <ellipse id="Ellipse_3437" data-name="Ellipse 3437" cx="4.757" cy="3.232" rx="4.757" ry="3.232" transform="translate(8.059 8.753) rotate(-66.926)" fill="#0c0c0c"/>
        </g>
        <path id="b_1_b-2" data-name="b_1_b" d="M773.241,291.505c10.076-.475,10.5-9.027,10.5-9.027s4.992.323,8.312.772c5.433.735,9.018,2.578,11.87,5.43,2.654,2.654,4.269,5.525,2.56,23.854-1.238,13.272-.367,42.465-.367,42.465h-61.4s-4.288-42.174-4.8-48.149c-.97-11.405-3.711-13.923,1.842-19.8,4.027-4.261,14.423-4.574,18.608-4.573C760.436,282.479,759.519,292.152,773.241,291.505Z" transform="translate(-528.557 -234.173)" fill="#3b67ba"/>
        <path id="Path_108932" data-name="Path 108932" d="M601,306.891,585.12,340.546,553.814,317l-12.435,16.535,41.455,31.174a11.313,11.313,0,0,0,1.16.757,10.339,10.339,0,0,0,14.073-3.966l.18-.32,24.22-43.23Z" transform="translate(-389.779 -251.37)" fill="#3b67ba"/>
        <path id="Path_108933" data-name="Path 108933" d="M308.359,527.442H28.741a.3.3,0,0,1,0-.591H308.359a.3.3,0,1,1,0,.591Z" transform="translate(-28.445 -406.32)" fill="#292a2e"/>
        <g id="Group_49136" data-name="Group 49136" transform="translate(69.214 76.718)">
          <path id="Path_108954" data-name="Path 108954" d="M0,0H149.733V51.181H0Z" transform="translate(0.148 0.148)" fill="#fff"/>
          <path id="Path_108934" data-name="Path 108934" d="M412.658,430.087H262.629V378.61H412.658Zm-149.733-.3H412.362V378.906H262.925Z" transform="translate(-262.629 -378.61)" fill="none"/>
        </g>
        <g id="Group_49140" data-name="Group 49140" transform="translate(57.275 88.24)">
          <path id="Path_108935" data-name="Path 108935" d="M226.926,421.863l9.243-4.128a1.6,1.6,0,0,1,2.168.943,1.657,1.657,0,0,1-.938,2.016l-1.982.887,7.51.077c.835-.006,1.864.521,1.809,1.458a1.6,1.6,0,0,1-1.231,1.568.108.108,0,0,1,0,.024.13.13,0,0,1,0,.018l1.288-.009a1.6,1.6,0,0,1,1.582,1.921,1.64,1.64,0,0,1-1.618,1.281l-.548,0a.148.148,0,0,1-.03.043,1.6,1.6,0,0,1,1.248,1.657,1.653,1.653,0,0,1-1.664,1.507l-1.361.01a.149.149,0,0,1,.064.118.145.145,0,0,1-.027.078,1.6,1.6,0,0,1,.806,1.77,1.639,1.639,0,0,1-1.61,1.241l-11.485.082a8.066,8.066,0,0,1-7.513-4.987h0a5.323,5.323,0,0,1,2.749-6.891Z" transform="translate(-222.232 -417.596)" fill="#e98862"/>
          <g id="Group_49137" data-name="Group 49137" transform="translate(13.839 6.897)" opacity="0.2">
            <path id="Path_108936" data-name="Path 108936" d="M269.057,441.083a.148.148,0,0,0,.148.146l7.142.064a.148.148,0,1,0,0-.3l-7.142-.064a.148.148,0,0,0-.148.148Z" transform="translate(-269.057 -440.933)" fill="#0c0c0c"/>
          </g>
          <g id="Group_49138" data-name="Group 49138" transform="translate(13.722 10.048)" opacity="0.2">
            <path id="Path_108937" data-name="Path 108937" d="M268.663,451.743a.148.148,0,0,0,.148.146l7.971.072a.148.148,0,0,0,.148-.148.153.153,0,0,0-.148-.148l-7.971-.072a.148.148,0,0,0-.149.148Z" transform="translate(-268.662 -451.593)" fill="#0c0c0c"/>
          </g>
          <g id="Group_49139" data-name="Group 49139" transform="translate(13.579 13.457)" opacity="0.2">
            <path id="Path_108938" data-name="Path 108938" d="M268.178,463.277a.148.148,0,0,0,.148.146l6.358.057a.148.148,0,0,0,0-.3l-6.358-.057a.148.148,0,0,0-.148.148Z" transform="translate(-268.178 -463.127)" fill="#0c0c0c"/>
          </g>
        </g>
        <path id="b_4_b" d="M95.647,350.372,44.4,362.021a11.083,11.083,0,0,1-12.129-12.857l5.864-47.17A11.083,11.083,0,1,1,60,305.672l-2.824,33.763,35.6-8.057Z" transform="translate(-31.033 -241.407)" fill="#3b67ba"/>
        <g id="b_4_st" transform="translate(18.788 97.534)">
          <path id="Path_108939" data-name="Path 108939" d="M92.161,450.861a.148.148,0,0,1-.022-.294l7.141-1.525a.146.146,0,0,1,.168.124.148.148,0,0,1-.124.168l-7.141,1.525Z" transform="translate(-92.014 -449.041)" fill="#0c0c0c"/>
        </g>
        <g id="b_4_st-2" data-name="b_4_st" transform="translate(14.748 78.241)">
          <path id="Path_108940" data-name="Path 108940" d="M78.5,426.349a.148.148,0,0,1-.019-.3l49.405-11.636-2.8-18.709L89.7,403.348a.15.15,0,0,1-.126-.044.148.148,0,0,1-.04-.127l1.985-19.291a.146.146,0,0,1,.17-.121.148.148,0,0,1,.121.17l-1.951,19.093,35.3-7.646a.148.148,0,0,1,.183.107l2.871,19a.148.148,0,0,1-.1.177L78.522,426.348Z" transform="translate(-78.345 -383.763)" fill="#0c0c0c"/>
        </g>
        <g id="Group_49144" data-name="Group 49144" transform="translate(204.229 97.107)">
          <path id="Path_108941" data-name="Path 108941" d="M738.931,451.863l-9.243-4.128a1.6,1.6,0,0,0-2.168.943,1.657,1.657,0,0,0,.938,2.016l1.982.887-7.511.077c-.835-.006-1.864.521-1.809,1.458a1.6,1.6,0,0,0,1.231,1.569.113.113,0,0,0,0,.024.13.13,0,0,0,0,.018l-1.288-.009a1.6,1.6,0,0,0-1.582,1.921,1.64,1.64,0,0,0,1.618,1.281l.548,0a.153.153,0,0,0,.03.043,1.6,1.6,0,0,0-1.248,1.657,1.653,1.653,0,0,0,1.664,1.507l1.361.01a.148.148,0,0,0-.064.118.142.142,0,0,0,.026.078,1.6,1.6,0,0,0-.806,1.77,1.639,1.639,0,0,0,1.61,1.241l11.485.082a8.066,8.066,0,0,0,7.513-4.988h0a5.323,5.323,0,0,0-2.749-6.891Z" transform="translate(-719.449 -447.596)" fill="#e98862"/>
          <g id="Group_49141" data-name="Group 49141" transform="translate(2.897 6.897)" opacity="0.2">
            <path id="Path_108942" data-name="Path 108942" d="M736.689,471.083a.148.148,0,0,1-.148.146l-7.142.064a.148.148,0,1,1,0-.3l7.142-.064a.148.148,0,0,1,.148.148Z" transform="translate(-729.25 -470.933)" fill="#0c0c0c"/>
          </g>
          <g id="Group_49142" data-name="Group 49142" transform="translate(2.186 10.048)" opacity="0.2">
            <path id="Path_108943" data-name="Path 108943" d="M735.11,481.743a.148.148,0,0,1-.146.146l-7.971.072a.148.148,0,0,1-.148-.148.153.153,0,0,1,.148-.148l7.971-.072a.148.148,0,0,1,.148.148Z" transform="translate(-726.845 -481.593)" fill="#0c0c0c"/>
          </g>
          <g id="Group_49143" data-name="Group 49143" transform="translate(3.941 13.457)" opacity="0.2">
            <path id="Path_108944" data-name="Path 108944" d="M739.438,493.277a.148.148,0,0,1-.148.146l-6.358.057a.148.148,0,0,1,0-.3l6.358-.057a.148.148,0,0,1,.148.148Z" transform="translate(-732.783 -493.127)" fill="#0c0c0c"/>
          </g>
        </g>
        <path id="b_4_b-2" data-name="b_4_b" d="M786.413,359.235l48.29,2.783a11.083,11.083,0,0,0,12.129-12.857l-5.863-47.172a11.083,11.083,0,1,0-21.859,3.678l2.824,35.832-35.308-1.26Z" transform="translate(-562.392 -241.404)" fill="#3b67ba"/>
        <g id="b_4_st-3" data-name="b_4_st" transform="translate(259.455 99.602)">
          <path id="Path_108945" data-name="Path 108945" d="M913.594,456.383a.148.148,0,0,0,.022-.294l-7.141-.047a.146.146,0,0,0-.168.124.148.148,0,0,0,.124.168l7.141.047Z" transform="translate(-906.305 -456.041)" fill="#0c0c0c"/>
        </g>
        <g id="b_4_st-4" data-name="b_4_st" transform="translate(224.016 78.242)">
          <path id="Path_108946" data-name="Path 108946" d="M833.154,426.352a.148.148,0,0,0,.019-.3l-46.451-2.768.139-18.709,35.1.842a.15.15,0,0,0,.126-.044.148.148,0,0,0,.04-.127l-1.985-21.36a.146.146,0,0,0-.17-.121.148.148,0,0,0-.121.17L821.8,405.1l-35-.848a.148.148,0,0,0-.183.107l-.211,19a.148.148,0,0,0,.1.177l46.629,2.815Z" transform="translate(-786.397 -383.767)" fill="#0c0c0c"/>
        </g>
        <g id="Group_49145" data-name="Group 49145" transform="translate(86.981 93.841)">
          <path id="Path_108947" data-name="Path 108947" d="M340.623,453.671H336.7l-2.2-8.54q-.122-.456-.417-1.884t-.339-1.918q-.066.6-.334,1.929t-.411,1.9l-2.191,8.517h-3.914l-4.148-16.255h3.392l2.079,8.873q.545,2.458.789,4.259.067-.634.306-1.962t.45-2.063l2.368-9.107h3.258l2.368,9.107q.155.612.389,1.868t.355,2.158q.111-.867.355-2.163t.443-2.1l2.069-8.873h3.391Z" transform="translate(-322.743 -437.159)" fill="#683395"/>
          <path id="Path_108948" data-name="Path 108948" d="M413.518,453.671h-9.363V437.416h9.363v2.824H407.6v3.569h5.5v2.823h-5.5v4.192h5.915Z" transform="translate(-380.093 -437.159)" fill="#683395"/>
          <path id="Path_108949" data-name="Path 108949" d="M447.307,453.671V437.416h3.447v13.41h6.594v2.846Z" transform="translate(-410.492 -437.159)" fill="#683395"/>
          <path id="Path_108950" data-name="Path 108950" d="M496.01,439.486A3.513,3.513,0,0,0,493,440.948a6.8,6.8,0,0,0-1.067,4.075q0,5.438,4.08,5.438a12.9,12.9,0,0,0,4.148-.857V452.5a11.513,11.513,0,0,1-4.47.834,6.819,6.819,0,0,1-5.426-2.152A9.107,9.107,0,0,1,488.381,445a10.085,10.085,0,0,1,.923-4.442,6.669,6.669,0,0,1,2.652-2.924,7.846,7.846,0,0,1,4.053-1.017,10.943,10.943,0,0,1,4.758,1.145l-1.112,2.8a18.465,18.465,0,0,0-1.835-.756A5.477,5.477,0,0,0,496.01,439.486Z" transform="translate(-439.424 -436.595)" fill="#683395"/>
          <path id="Path_108951" data-name="Path 108951" d="M552.964,444.909a8.822,8.822,0,0,1-2,6.2,8.675,8.675,0,0,1-11.475,0,8.855,8.855,0,0,1-2-6.227,8.734,8.734,0,0,1,2.007-6.2,7.508,7.508,0,0,1,5.754-2.141,7.4,7.4,0,0,1,5.732,2.158A8.841,8.841,0,0,1,552.964,444.909Zm-11.864,0a6.789,6.789,0,0,0,1.034,4.1,3.619,3.619,0,0,0,3.091,1.379q4.126,0,4.125-5.482t-4.1-5.493a3.646,3.646,0,0,0-3.1,1.384A6.746,6.746,0,0,0,541.1,444.909Z" transform="translate(-474.018 -436.547)" fill="#683395"/>
          <path id="Path_108952" data-name="Path 108952" d="M608.137,453.671l-3.914-12.754h-.1q.211,3.892.211,5.193v7.561h-3.08V437.416h4.693l3.847,12.431h.067l4.081-12.431h4.692v16.255H615.42v-7.695q0-.544.016-1.256t.15-3.78h-.1l-4.192,12.732Z" transform="translate(-518.939 -437.159)" fill="#683395"/>
          <path id="Path_108953" data-name="Path 108953" d="M683.263,453.671H673.9V437.416h9.362v2.824h-5.915v3.569h5.5v2.823h-5.5v4.192h5.915Z" transform="translate(-570.114 -437.159)" fill="#683395"/>
        </g>
      </g>
    </g>
  </g>
</svg>
